<svg height="511pt" viewBox="0 -18 511.99696 511" width="511pt" xmlns="http://www.w3.org/2000/svg"><path d="m39.953125 378.007812c23.035156-.859374 41.5-19.34375 42.332031-42.378906v-124.84375c0-5.050781 4.09375-9.144531 9.144532-9.144531 5.046874 0 9.140624 4.09375 9.140624 9.144531v137.140625c-.875 14.273438 3.699219 28.34375 12.800782 39.371094 9.808594 9.769531 23.09375 15.242187 36.9375 15.214844 13.710937-.039063 26.828125-5.59375 36.394531-15.417969 9.5625-9.820312 14.769531-23.082031 14.441406-36.789062v-157.804688c0-5.050781 4.09375-9.144531 9.140625-9.144531 5.050782 0 9.144532 4.09375 9.144532 9.144531v170.054688c.441406 14.019531 6.402343 27.292968 16.585937 36.9375 9.730469 9.875 23.035156 15.410156 36.898437 15.359374 29.671876.300782 54.382813-22.679687 56.230469-52.296874v-188.34375c0-5.046876 4.09375-9.140626 9.140625-9.140626 5.050782 0 9.144532 4.09375 9.144532 9.140626v163.84375c0 17.734374 3.464843 29.144531 11.234374 36.988281 14.949219 14.890625 37.390626 19.320312 56.875 11.226562 19.484376-8.09375 32.183594-27.117187 32.1875-48.214843v-239.363282c.015626-35.617187-28.839843-64.511718-64.457031-64.546875-21.101562 0-35.839843 16.238281-35.839843 39.496094 0 .082031-.046876.148437-.046876.230469 0 .082031.046876.144531.046876.226562v8.6875c0 5.046875-4.09375 9.140625-9.144532 9.140625-5.046875 0-9.140625-4.09375-9.140625-9.140625v-8.6875c0-.082031.042969-.144531.042969-.226562 0-.082032-.042969-.148438-.042969-.230469v-36.570313c0-22.59375-22.859375-36.570312-43.980469-36.570312h-24.5c-22.058593.019531-39.933593 17.894531-39.957031 39.953125l-1.277343 46.144531v5.328125c0 5.050781-4.09375 9.144531-9.144532 9.144531-5.046875 0-9.140625-4.09375-9.140625-9.144531v-5.574219c0-19.839843-10.515625-39.863281-34.011719-39.863281h-29.074218c-10.070313-.464843-19.871094 3.328125-27.003906 10.449219-7.128907 7.125-10.9375 16.917969-10.484376 26.988281v26.285157c0 5.050781-4.09375 9.144531-9.140624 9.144531-5.050782 0-9.144532-4.09375-9.144532-9.144531v-1.691407c.023438-7.351562-2.902344-14.40625-8.117187-19.589843-6.394531-4.476563-14.183594-6.492188-21.945313-5.6875-28.824218.019531-52.191406 23.378906-52.222656 52.203124v202.609376c-.0234375 10.601562 4.175781 20.777343 11.675781 28.277343 7.496094 7.496094 17.675781 11.699219 28.277344 11.675781zm0 0"/><path d="m506.605469 301.296875-27.941407-66.039063c-3.15625-5.269531-7.488281-9.742187-12.652343-13.074218v115.871094c-.003907 28.492187-17.160157 54.179687-43.476563 65.105468-26.316406 10.921875-56.617187 4.929688-76.796875-15.1875-.914062-.914062-1.757812-1.828125-2.570312-2.742187-11.59375 28.691406-39.308594 47.589843-70.253907 47.90625-12.699218.015625-25.164062-3.4375-36.039062-9.992188 0 .441407-.15625.914063-.15625 1.308594 1.664062 27.835937 24.023438 49.953125 51.875 51.320313 1.9375.09375 3.875-.175782 5.714844-.789063 17.273437-5.042969 35.132812-7.800781 53.121094-8.199219 27.769531 1.367188 55.433593 4.417969 82.832031 9.140625 22.910156-.347656 42.9375-15.527343 49.472656-37.484375l30.804687-106.324218c2.804688-10.070313 1.53125-20.84375-3.539062-29.988282-.144531-.269531-.277344-.546875-.394531-.832031zm0 0"/></svg>